<svg width="32" height="32" viewBox="0 0 32 32" fill="none" xmlns="http://www.w3.org/2000/svg">
<circle opacity="0.3" cx="16" cy="16" r="16" fill="black"/>
<g clip-path="url(#clip0_8460_2976)">
<path d="M14.5998 10.8268C15.0587 10.7194 15.5285 10.6657 15.9998 10.6668C20.6665 10.6668 23.3332 16.0001 23.3332 16.0001C22.9285 16.7572 22.4459 17.4699 21.8932 18.1268M17.4132 17.4134C17.2301 17.6099 17.0093 17.7675 16.7639 17.8768C16.5186 17.9862 16.2538 18.0449 15.9852 18.0497C15.7167 18.0544 15.4499 18.005 15.2009 17.9044C14.9519 17.8038 14.7257 17.6541 14.5357 17.4642C14.3458 17.2743 14.1961 17.0481 14.0955 16.799C13.9949 16.55 13.9455 16.2832 13.9503 16.0147C13.955 15.7462 14.0138 15.4813 14.1231 15.236C14.2324 14.9907 14.39 14.7699 14.5865 14.5868M19.9598 19.9601C18.8202 20.8288 17.4326 21.31 15.9998 21.3334C11.3332 21.3334 8.6665 16.0001 8.6665 16.0001C9.49576 14.4547 10.6459 13.1045 12.0398 12.0401L19.9598 19.9601Z" stroke="white" stroke-width="2" stroke-linecap="round" stroke-linejoin="round"/>
<path d="M8.6665 8.66675L23.3332 23.3334" stroke="white" stroke-width="2" stroke-linecap="round" stroke-linejoin="round"/>
</g>
<defs>
<clipPath id="clip0_8460_2976">
<rect width="16" height="16" fill="white" transform="translate(8 8)"/>
</clipPath>
</defs>
</svg>
