<svg width="48" height="48" viewBox="0 0 48 48" fill="none" xmlns="http://www.w3.org/2000/svg">
<g filter="url(#filter0_b_8624_2672)">
<rect width="48" height="48" rx="8" fill="#E2EBF2"/>
</g>
<path opacity="0.23" d="M12.148 19.004H13.478V29H12.148V19.004ZM15.743 19.004H17.563L20.713 27.404L23.877 19.004H25.697V29H24.437V20.684H24.409L21.287 29H20.153L17.031 20.684H17.003V29H15.743V19.004ZM35.3864 27.754C34.9944 28.286 34.5044 28.664 33.9304 28.888C33.3424 29.112 32.7684 29.224 32.1804 29.224C31.4244 29.224 30.7664 29.098 30.1784 28.818C29.5904 28.538 29.0864 28.174 28.6804 27.698C28.2604 27.236 27.9524 26.704 27.7424 26.088C27.5184 25.486 27.4204 24.856 27.4204 24.198C27.4204 23.47 27.5184 22.784 27.7144 22.126C27.9104 21.468 28.2184 20.894 28.6104 20.39C29.0024 19.9 29.5064 19.508 30.0944 19.214C30.6824 18.92 31.3824 18.766 32.1804 18.766C32.7124 18.766 33.2304 18.836 33.7064 18.962C34.1824 19.088 34.6164 19.284 34.9944 19.55C35.3724 19.83 35.6944 20.166 35.9464 20.586C36.1984 21.006 36.3804 21.496 36.4784 22.084H35.1484C35.0784 21.706 34.9524 21.384 34.7844 21.104C34.6024 20.824 34.3784 20.6 34.1264 20.418C33.8604 20.25 33.5664 20.11 33.2304 20.026C32.8944 19.942 32.5444 19.9 32.1804 19.886C31.5644 19.886 31.0464 20.012 30.6124 20.25C30.1784 20.502 29.8284 20.824 29.5484 21.216C29.2684 21.608 29.0724 22.07 28.9464 22.574C28.8064 23.078 28.7504 23.596 28.7504 24.128C28.7504 24.66 28.8204 25.164 28.9744 25.64C29.1144 26.116 29.3384 26.55 29.6324 26.914C29.9124 27.278 30.2764 27.572 30.6964 27.796C31.1164 28.02 31.6204 28.118 32.1804 28.118C32.6984 28.118 33.1604 28.034 33.5664 27.866C33.9584 27.698 34.2944 27.474 34.5744 27.18C34.8544 26.886 35.0644 26.536 35.2044 26.144C35.3444 25.752 35.4004 25.318 35.3864 24.856H32.1944V23.736H36.5764V29H35.7364L35.3864 27.754Z" fill="#7F93A3"/>
<defs>
<filter id="filter0_b_8624_2672" x="-20" y="-20" width="88" height="88" filterUnits="userSpaceOnUse" color-interpolation-filters="sRGB">
<feFlood flood-opacity="0" result="BackgroundImageFix"/>
<feGaussianBlur in="BackgroundImage" stdDeviation="10"/>
<feComposite in2="SourceAlpha" operator="in" result="effect1_backgroundBlur_8624_2672"/>
<feBlend mode="normal" in="SourceGraphic" in2="effect1_backgroundBlur_8624_2672" result="shape"/>
</filter>
</defs>
</svg>
